<?xml version="1.0" encoding="utf-8"?>
<!-- Generator: Adobe Illustrator 19.1.0, SVG Export Plug-In . SVG Version: 6.00 Build 0)  -->
<!DOCTYPE svg PUBLIC "-//W3C//DTD SVG 1.1//EN" "http://www.w3.org/Graphics/SVG/1.1/DTD/svg11.dtd">
<svg version="1.1" id="Layer_1" xmlns="http://www.w3.org/2000/svg" xmlns:xlink="http://www.w3.org/1999/xlink" x="0px" y="0px"
	 viewBox="0 0 558 184" style="enable-background:new 0 0 558 184;" xml:space="preserve">
<style type="text/css">
	.st0{fill:#D9F1FD;}
	.st1{stroke:#FFFFFF;stroke-miterlimit:10;}
	.st2{fill:#FFFFFF;}
	.st3{fill:none;stroke:#FFFFFF;stroke-miterlimit:10;}
	.st4{fill:#59963B;}
	.st5{fill:#CA1B22;}
	.st6{fill:#006BB6;}
	.st7{fill:#99CC66;}
	.st8{fill:#ED5361;}
	.st9{fill:#4099D4;}
	.st10{fill:#EDC31C;}
	.st11{fill:#F6DB87;}
	.st12{fill:#007451;}
	.st13{fill:#C8252C;}
	.st14{fill:#0071BB;}
	.st15{fill:#6FA591;}
	.st16{fill:#DB6868;}
	.st17{fill:#77A2D6;}
</style>
<g>
	<path class="st0" d="M503.5,119.4c-0.5-5.9-0.9-11.8-1.5-18.4c-6.3,0.3-10.2,0.7-14.2,0.6c-3.7,0-7.4-0.5-11.1-0.8
		c12-5.4,4.5-12.1,3.1-17.9c-0.8-3.2-7.2-4.6-11.9-3c-8.9,3-18.5,3.6-29.8,2.5c-4.6-0.4-9.4,0.7-14.3,1.2c1.8,3.1,3.1,5.4,4.4,7.6
		c-1.1,0.3-2.3,0.7-3.4,1c-9-5-18-10-26.4-14.6c1-6.4,1-6.4-6.5-10.2c-13.3,1.4-16,8-22.6,12.7c-0.1-0.6-0.2-1.2-0.3-1.7
		c-7.1-2.7-13.3-4.3-17-6.6c-3.9-2.4-5.5-5.5-8.1-8.3c-1.5,0.1-2.9,0.1-4.4,0.2c-1.2,1.4-2.3,2.9-3.7,4.3c-1.7,1.7-2.5,4-5.6,4.9
		c-9.5,2.7-11,6.4-6.9,10.1c1.8,1.6-0.1,3.9-3.4,6c-6.7-1.8-8.8-20.7-6.8-30.5c-1.4-0.4-2.8-0.7-4.3-1.1
		C297.9,63,286.8,68.6,274.2,75c-11.7-1.9-23.5-3.8-36.7-5.9c-1.6,2.9-2.3,4.8-3.8,6.6c-1.4,1.6-3.7,3.1-5.6,4.7
		c-6.4-7.3-22.3-6.3-34.1-7.7c-6.6-0.8-8.7,10.6-10.8,13.6c-1.1-1.5-1.9-2.8-2.1-4.2c-0.4-3.1,1.9-6,3-9c-1.3-0.3-2.6-0.7-3.9-1
		c-2.7,0.9-5.3,1.8-8.1,2.6c-3.3,1-6.7,2.7-10.3,2.6c-11.1-0.2-16.6,2.4-17.5,6.5c-1.1,4.9,0.4,10.1,0.8,15.1
		c1.2,0.2,2.5,0.3,3.7,0.5c-0.6,0.3-1.2,0.6-1.8,1c-1-0.1-1.9-0.3-2.9-0.4c-7.9-0.7-16.1,0.5-21.4,3.2c-5.6-2.1-7.8-5.4-8.8-8.8
		c-0.6-2-0.1-3.9,0-5.9c0.2-2.9,2-5.8,0.5-8.5c-1.2-2.3-5.4-5.2-9.8-6.3c-2.8-0.7-10.2,0.9-12.4,2.4c-4.1,2.9-6.8,6.4-8.4,9.9
		c-2.2,4.7-2.9,9.6-4,13.9c-9.9-0.6-19.3-1.1-29.3-1.6c0.7,5.8,5.7,8.3,15.4,9.9c6.4,1.1,12.2,3.3,20.6,5.7
		c-25.4,6.5-56.2,3.7-76,11.2c0.4,0.7,0.9,1.5,1.3,2.2c16.1-0.1,32.3-0.3,50.6-0.4c5.4,5.3,10.8,10.6,16.8,16.6
		c5.5-1.5,8.8-2.6,12.5-3.3c3.4-0.7,7.3-0.9,10.9-1.4c-6.5,7.3,6.1,12,12.2,17c3.4,2.8,10.4,2.8,13.4,0.4c5.7-4.4,14-6.8,25.2-8
		c4.6-0.5,8-2.5,12.1-3.8c-4.2-2.5-7.4-4.3-10.5-6.2c0.8-0.5,1.5-1,2.3-1.5c12.4,2.9,24.8,5.7,36.5,8.4c4.5,6.1,4.5,6.1,14.5,8.1
		c11.7-4.1,7.4-11.3,10.5-17c0.4-0.7,0.8-1.6,1-2.4c3.2-1.9,6.6-3.9,10.4-6.1c3.6,5.8,6.6,10.6,8.9,14.3c8.1,1.9,14.9,2.9,19.5,4.7
		c1.8,0.7,3.3,1.6,4.7,2.5c-1.3,1.1-2.3,2.3-3.2,3.5c1.2,0.5,2.5,1,3.7,1.5c1.5-0.5,2.9-1,4.4-1.5c0.6,0.4,1.2,0.9,1.9,1.3
		c1.4-0.2,2.8-0.4,4.2-0.6c0.4-1,0.7-2,1.1-3c9.6-3.1,19.4-6.4,30.1-9.9c10.6,3,21.4,6,33.3,9.4c2.8-2.7,4.3-4.5,6.6-6.1
		c2-1.4,5-2.7,7.5-4c0.2,0.4,0.4,0.8,0.6,1.2c-2.2,1.6-4.7,3-6.9,4.6c0.9,0.5,1.8,1.1,2.7,1.6c3.2-0.3,6.4-0.6,9.7-0.9
		c0.7,0,1.5-0.1,2.3-0.2c6.4,2.2,15,3,21.7,4.6c6.1,1.4,11.9-0.4,11.7-3.2c-0.3-3.4,1.4-6.4,4.9-9.2c0,0,0,0,0.1,0
		c7.2,1.1,13.6,1.5,21.1,0.6c3.2-0.4,6.3-1,9.3-1.6c-0.3,0.7-0.6,1.3-0.9,2c-1.1,1.9-3.2,3.6-5,5.4c-2.6,2.6-6.7,4.9-7.6,7.7
		c-0.8,2.3,0.6,5.8,3.7,7.6c2,1.2,10.1,1.1,13.4,0.1c6.2-1.9,11.6-4.6,16.1-7.5c6-3.9,10.7-8.3,15.3-12c8.6,2.4,16.8,4.7,25.5,7.1
		c4.2-5.4,1.7-8.7-5.8-12c-5-2.2-8.4-5.4-14.1-9.2c28.7-1.1,54.6,7.3,79.1,4.2c0.2-0.8,0.4-1.5,0.6-2.3
		C535.3,125.7,520.4,122.8,503.5,119.4z M192.3,98.6c0.2,0.6,0.5,1.2,0.7,1.8c-6.4,1.1-12.8,2.2-19.1,3.3c2.4-2,4.6-3.9,6.7-5.7
		C184.9,98.3,188.6,98.4,192.3,98.6z"/>
	<path class="st7" d="M329.8,31.6c-0.8,0.2-0.8,0.2-1.7-0.6c-1,0.2-2.1,0.3-3.2,0.5c0,0.1,0,0.2,0,0.4c0.4,0.1,0.7,0.3,1.3,0.5
		c-0.1,0.4-0.2,0.9-0.4,1.2c-0.6,0.8-0.9,1.6-0.9,2.6c0,0.5-0.4,0.9-0.9,0.6c-0.9-0.5-2.1-0.6-2.4-2.1c-0.2,0.3-0.4,0.5-0.6,0.8
		c-0.2,0.3-0.3,0.6-0.5,1.2c-0.9-0.6-1.8-1.2-2.6-1.8c-1.2,1-2.2,1.8-3.3,2.6c-0.1-0.1-0.2-0.2-0.3-0.3c0.6-2.2,2.9-3.3,3.9-5.6
		c-0.8,0-1.4,0-1.9,0.1c-0.8,0.2-1.3,0.1-1.9-0.8c0.7-0.4,1.4-0.8,2.1-1.2c-0.3-0.7-0.7-1.6-1-2.4c-0.2-0.6-0.4-1.3-0.4-2
		c0-0.4,0.3-1,0.6-1c0.4,0,0.9,0.2,1.2,0.5c0.3,0.4,0.5,0.9,0.7,1.4c0.2,0.3,0.3,0.7,0.5,0.9c0.5,0.6,1.1,1.2,2,0.9
		c0.9-0.3,0.6-1.2,0.8-1.9c-0.1,0-0.2,0.1-0.3,0.1c-0.5-0.8-1.1-1.5-1.4-2.4c-0.3-0.7-0.2-1.4,0.5-1.9c0.2-0.2,0.3-0.6,0.4-0.9
		c0.1-0.3,0.2-0.6,0.3-0.8c0.1,0,0.2,0,0.3,0c0.2,0.5,0.3,1.1,0.6,1.6c0.3,0.4,0.8,0.7,1.3,1.3c0,0.7,0.1,1.7,0.2,2.9
		c0.7-0.6,1.2-1.2,1.8-1.7c0.3,0.2,0.5,0.3,0.6,0.5c0.5,1.1,1.2,1.8,2.4,2.2c0.5,0.1,0.9,1,1.1,1.6
		C329.2,29.5,330.2,30.4,329.8,31.6z"/>
	<path class="st2" d="M219,82.6c-0.3,0.2-0.5,0.3-0.8,0.5c-0.2-0.1-0.3-0.2-0.5-0.3c0.4-0.8,0.8-1.6,1.2-2.4c0.1,0,0.2,0.1,0.3,0.1
		C219.2,81.2,219.1,81.9,219,82.6L219,82.6z"/>
	<path class="st9" d="M249.7,63c2.2-5.7,4.6-11.3,6.6-17.1c2-5.8,3.5-11.8,5.3-17.7c0.1-0.3,0.1-0.5,0.1-0.8
		c0.1-1.9-0.7-2.6-2.5-2.2c-2.6,0.6-4.5,2.1-5.6,4.4c-2.3,4.7-5.1,9.3-6.8,14.2c-1.8,5.3-2.5,11-3.7,16.5c-0.8,3.5-1.5,7.1-2.3,10.6
		c-0.2,0.8-0.8,1.5-1.1,2.1c-2-2-3.8-3.7-5.7-5.6c-1.2,1.1-2.7,1.1-4.1,1c-0.5,0.5-1.1,1.1-1.7,1.6c-0.3,1.6-1.7,2.3-2.7,3.2
		c-1.1,1.1-2.6,1.7-3.9,2.5c0.6,2.9-1,4.8-2.6,6.7c-0.1,0.8-0.1,1.7-0.4,2.5c-1.3,3.6-3.1,7-3.2,10.9c-0.1,2.6-0.2,5.2-0.3,7.6
		c-1.4,0.4-2.5,0.7-3.5,0.9c-3,0.8-4.2,0-4.5-3.1c-0.2-2-0.1-4-0.1-6c-0.1-5.8,1.1-11.2,4.2-16.1c0.4-0.6,0.7-1.3,1.1-2.1
		c-1.1-0.8-2.1-1.8-3.2-2.2c-3.4-1.2-5.6-3.6-7.2-6.4c0.2-1.1,0.3-1.8,0.5-2.6c-3,0-4.4,1.2-4.7,4c-0.1,1,0,2-0.2,3
		c-1,4.2-2.1,8.4-3.2,12.6c-0.8,2.7-1.6,5.4-2.6,8c-1.1,2.6-2.4,5.1-3.8,7.5c-1,1.7-1.7,3.8-4,5.1c-0.1-1-0.2-1.6-0.2-2.2
		c0.1-3.5,0.1-7,0.5-10.4c0.4-4.1,1.1-8.2,1.8-12.3c0.3-1.8,0.8-3.6,0.9-5.3c0.2-1.7-0.6-2.3-2.3-2.2c-1.9,0.1-3.8,0-5.7,0
		c0-0.2,0.1-0.3,0.1-0.5c-0.6-0.6-1.2-1.5-1.9-1.7c-2.5-0.7-5.1-1.4-7.3,0.9c-0.7,0.8-1.8,1.2-2.6,2c-1,1-2.1,2-2.6,3.2
		c-1.3,3.2-2.5,6.4-3.4,9.7c-0.7,2.6-1.3,5.3-1.9,8c0.1,3.9,0.2,7.8,0.2,11.7c0.7,1.6,0.7,3.3,0.7,5c0,3.2-1.4,6-3.9,8.1
		c-1.4,1.2-4.1,0.8-4.4-0.8c-0.6-2.9-1.3-5.8-1.2-8.7c0.3-5.9,1.2-11.7,1.8-17.6c0.3-2.9,0.6-5.8,0.8-8.2c-2.1-1.5-3.9-2.6-5.7-3.9
		c-0.1-0.2-0.1-0.5-0.2-0.7c-0.1-0.1-0.3-0.1-0.4-0.2c-0.5-0.4-1-0.8-1.4-1.2c-0.7-0.2-1.3-0.8-1.9-1.4c-1.9-1.6-3.5-1.1-3.9,1.2
		c-0.5,2.6-1,5.3-1.5,7.9c-1.4,7-3.5,13.7-6,20.4c-0.3,0.8-0.6,1.6-0.9,2.4c-0.1,0-0.3-0.1-0.4-0.1c-0.2-2.7-0.4-5.5-0.5-8.2
		c0-0.6,0.3-1.3,0.5-1.9c1.2-3.8,2.6-7.5,3.5-11.3c1-4.2,1.3-8.5,2.4-12.6c2.2-7.8,2.8-15.7,2.4-23.7c-0.2-3.4-0.7-6.8-1.2-10.2
		c-0.2-1.6-1.1-2.3-2.6-2.1c-0.8,0.1-1.7,0.4-2.2,0.9c-2,2.1-4.1,4.1-5.6,6.5c-2.6,4.1-3.1,9-3.6,13.7c-0.7,6.5-0.7,13-0.9,19.5
		c-0.1,3.3,0,6.6-0.1,9.8c-0.1,7.3-0.1,14.6-0.3,21.9c0,1.7-0.2,3.3-0.6,4.9c-0.6,2.3-1.2,4.6-2.2,6.7c-1.3,2.9-2.7,5.7-4.4,8.3
		c-1.1,1.7-3.2,2.6-5.3,2.3c-2.4-0.3-3.8-2-4.5-4.3c-0.6-2.2,0-4.2,0.7-6.3c1.9-6.3,5.1-12.2,7.4-18.4c1.9-5,1.6-10,1.6-15.1
		c0-1.3-0.5-2.8-1.9-3c-1.9-0.4-4.1-0.8-5.7,0.9c-1.9,2-3.6,4.1-5.4,6.1c0.2,0.1,0.3,0.2,0.5,0.2c-0.1,1.1-0.1,2.3-0.5,3.2
		c-1.2,2.7-2.7,5.2-3.9,7.9c-1.2,2.9-2.6,5.8-3.1,8.9c-0.5,3.7-0.3,7.6-0.1,11.4c0.2,3.1,0.2,6.3,1.6,9.3c0.3,0.7,0.1,1.8-0.3,2.5
		c-1.3,2-2.8,3.9-4.2,5.9c-0.1,0-0.1,0-0.2,0c-0.1,0.3-0.3,0.6-0.6,0.8c-0.1,0.1-0.2,0.1-0.3,0.2c0.1,0.1,0.2,0.3,0.4,0.4
		c-1.4,0.4-2.4,0.7-3.6,1.1c0-0.1,0-0.2-0.1-0.3c-0.8,0-1.5-0.4-1.8-1.2c-0.5-1.5-0.5-3.1-0.1-4.6c-0.2-0.7-0.4-1.3-0.4-1.9
		c0.1-4.8,0-9.5,0.5-14.3c0.5-4.7,0-9.5,1.6-14.1c0.1-0.2,0-0.5,0-0.8c0-2.6-0.2-5.2-0.1-7.8c0-1.2,0.4-2.5,0.5-3.7
		c0.3-1.8,0.4-3.7-0.1-5.5c-0.5,0-0.8-0.1-1,0c-1.3,0.6-2.7,1.2-4,1.9c-2.7,1.4-3.4,2.7-2.9,5.8c0.2,1.3,0.8,2.8,0.3,3.9
		c-0.9,2.4-0.2,4.7-0.4,7c-0.3,3.9-0.4,7.9-0.5,11.8c-0.1,5.1-0.2,10.2,0.2,15.3c0.3,4.2-1.1,7.9-2.6,11.6c0,0-0.1,0.1-0.1,0.1
		c-0.1,1-1.3,1.6-2.2,1.5c-1.1-0.2-1.7-1.2-1.6-2.2c0-0.2,0-0.4,0.1-0.6c-0.2-1.5-0.4-2.8-0.6-4.1c-0.6-5.3-1.3-10.5-1.9-15.8
		c-0.4-3.3-0.8-6.7-0.8-10c-0.1-5.3,2.5-9.9,4.6-14.6c1.5-3.3,3.3-6.4,4.1-10c0.7-3.1,1.7-6.2,2.6-9.3c1.6-5.6,2.4-11.4,2.3-17.2
		c0-1.6-0.5-3.1-1.9-4c-2.5-1.6-5.1-1.8-7.8-0.6c-0.7,0.3-1.6,0.7-2.3,0.4c-2.1-0.7-3.1,0.7-4.2,2c-0.4,0.4-0.3,1.2-0.6,1.6
		c-2.2,3.3-4.1,6.8-4.8,10.7c-1,5.2-1.5,10.5-1.9,15.7c-0.3,3.7-0.1,7.5-0.1,11.3c0,3.3-0.5,4-3.8,4.4c-2.2,0.3-3.8,1.2-4.7,3.2
		c-0.3,0.7-1,1.2-1.5,1.9c-1.5,2-3.3,3.9-4.4,6.2c-1.5,3.3-2.6,6.8-3.5,10.2c-0.9,3.6-1.4,7.4-2,11.1c-0.4,2.8-0.5,5.6-0.8,8.4
		c-0.1,0.7-0.6,1.6-1.1,1.9c-3.1,1.8-6.5,2.6-10,1.9c-5.6-1.1-9.6-4.7-12.9-9C13,140,12,135.7,11,131.6c-0.5-1.9-0.6-4-0.8-6
		C9.6,120.8,8.6,116,9,111c0.5-5.9,0.2-11.9,2.5-17.6c1.8-4.5,3.7-8.8,7.5-12c5.1-4.4,11.3-5.5,17-0.4c1.7,1.6,2.9,3.7,4.6,6
		c-0.3-1.3-0.4-2.5-0.9-3.4c-2.1-4.1-5.8-6-10-7.1c-2.3-0.6-4.5-0.2-6.7,0.6c-4.5,1.8-7.2,5.6-9.7,9.3c-2.7,4-4,8.7-4.7,13.5
		c-0.3,2.1-0.4,4.1-0.5,6.2c-0.2,2.9-0.7,5.9-0.5,8.8c0.4,5.3,1.2,10.6,1.9,15.9c0.4,2.8,0.6,5.8,1.8,8.2c1.7,3.5,3.2,7.3,6.5,9.8
		c0.9,0.7,2,1.3,3,2c4,3,8.5,4.2,13.4,3.4c1.5-0.2,3.1-0.3,4.8-0.5c0.1,1.2,0.1,2,0.1,2.8c0.3,3.3,0.3,6.6,0.9,9.8
		c0.5,2.9,2,5.4,4.5,7.1c1.2,0.8,2.7,1.1,4,0.4c3.1-1.8,6-3.8,7.8-7.1c1.4-2.6,2.6-5.1,3.2-8.1c0.9-4.4,2.6-8.6,4-12.9
		c0.1-0.4,0.4-0.8,0.7-1.5c0.4,1.2,0.7,2.2,1,3.1c0.3,0.8,0.5,1.5,0.6,2.3c0.4,0.3,0.6,0.8,0.6,1.5c0.3,0.2,0.5,0.4,0.7,0.7
		c0.1,0.2,0.2,0.4,0.3,0.5c1.5,0.7,3,1.9,4.2,3.2c0.8-0.1,1.6,0,2.4,0.4c0.2,0.1,0.7-0.1,0.9-0.3c0.9-0.8,2.1-1.6,2.7-2.6
		c1.2-2.2,2.1-4.5,3-6.8c0.4-1,0.9-1.6,2.3-1.4c1.2,3.1,3.7,3.9,6.6,2.9c2.3-0.7,4.1-2.4,5.5-4.5c1.4-2,2.8-3.8,4.2-5.7
		c0.7,0.4,1.1,0.5,1.4,0.7c3.6,2.4,7.1,1.9,10.5-0.3c1.3-0.9,2.6-1.8,4-2.6c0.3-0.2,0.7-0.2,0.8-0.2c1.8-2.3,5.2-7.3,6.9-9.5
		c0.6,0.4-0.5,3.7,0.1,4.1c-0.6,0.6-1,1.1-1.7,1.8c0.8,0.4,1.3,0.8,1.9,0.8c1.7,0.2,3.3,0.3,5,0.3c1.3,0,2-1,2.2-2.4
		c0.5-3.2,0.8-6.4,2.1-9.4c-0.1-0.4-0.1-0.9,0.1-1.2c-0.2-0.6-0.2-1.2,0-1.7h-0.1c2.1-9.4,4.3-18.7,7.8-27.9
		c1.4,1.6,2.6,2.8,3.7,4.1c0.4,0.5,0.7,1.2,0.7,1.8c0.1,2.1,0.2,4.2-0.1,6.2c-1.2,6.6-0.1,12.9,1.5,19.3c0.1,0.5,0.5,1,0.9,1.3
		c2.7,2.4,6.6,2.7,9.3,0.4c1.7-1.5,3.2-3.3,4.6-5.1c0.6-0.8,0.8-1.9,1.4-3.1c0.5,0.8,0.8,1.3,1.1,1.8c1.2,2,2.9,2.8,5,1.9
		c1.8-0.8,3.6-1.9,4.9-3.3c1.5-1.5,2.5-3.4,3.7-5.2c0.2-0.3,0.5-0.5,0.9-0.8c0.5,1.6,1,3.1,1.5,4.5c2.6-0.8,5.3-2.8,6.6-4.9
		c1.1-1.6,1.9-3.2,3.1-4.7c3.4-4.4,5.2-9.5,6.9-14.7c1.2-3.6,1.8-7.4,2.7-11.1c0.3-1,0.3-2.3,1.6-2.9c0.2,0.4,0.5,0.6,0.5,0.9
		c0.1,3.5,0.4,7.1,0.3,10.6c-0.1,4.3-0.6,8.6-0.6,12.8c0,3.1,1.8,5.5,4.3,7.1c0.9,0.6,2.2,1,3.2,0.8c2.7-0.4,5.3-1.3,8-2
		c0.5,0.5,1.2,1,1.7,1.6c2,2.2,4.4,2,6.9,1.4c3.7-1,5.9-4,7.9-6.8c2.2-3.2,3.6-7,5.2-10.6c0.9-2,1.7-4.1,2.6-6.1
		c0.2,0,0.4,0.1,0.6,0.1c0.1,0.6,0.3,1.3,0.3,1.9c0.5,3.6,1,7.2,1.6,10.7c0.1,0.8,0.6,1.8,1.2,2.1c3.6,2,7.9,1.4,11-1.5
		c1-1,1.8-2.3,2.4-3.6c0.5-1.1,0-2.2-1.6-2.8c0,0.9,0.1,1.5,0,2.1c-0.1,0.6-0.5,1.2-0.9,1.6c-0.7,0.7-1.5,1.2-2.6,2h-1.2
		c-0.4-0.5-0.8-0.9-1.2-1.3c-0.8-1-1.7-2-2.4-3.1c-2.1-3.4-2-7.3-2.2-11.1c-0.2-4.2-0.4-8.5,1.4-12.5C247.7,68,248.7,65.5,249.7,63z
		 M130.6,70.4c0.1-2.8,0.3-5.6,0.6-8.4c0.5-5.7,1.1-11.4,1.7-17.2c0.2-1.4,0.7-2.7,2.4-3.9c0.4,1.8,0.9,3.3,1,4.8
		c0.3,4.1,0.3,8.2,0.5,12.2c0.2,4.7-0.8,9.2-1.8,13.7c-1,4.6-1.8,9.3-2.7,14c-0.4,1.9-1,3.7-1.4,5.5c-0.1,0-0.2-0.1-0.3-0.1
		c0-1.9,0-3.8,0-5.7c0-1.3,0-2.7,0-4C130.6,77.8,130.5,74.1,130.6,70.4z M50.8,124c0.6-1,0.5-2.4,1.1-3.4c1.1-2.2,2.4-4.4,3.7-6.6
		c0.2-0.3,0.5-0.6,0.8-0.9c2.2-1.8,3.4-1.4,4,1.5c0.7,3.4-0.4,6.3-1.7,9.3c-1.9,4.5-3.9,9-6.8,12.9c-0.7,1-1.6,1.9-2.4,2.8
		c-0.2,0-0.4,0-0.7-0.1c-0.2-0.6-0.6-1.3-0.5-1.9C48.3,133,48.5,128.3,50.8,124z M62,143.5c-1.8,6-3.9,11.8-5.8,17.8
		c-0.5,1.7-1.3,3.1-2.4,4.3c-0.2,0.8-0.9,1.3-1.6,1.3c0,0-0.1,0.1-0.1,0.1c0,0,0-0.1,0-0.1c-0.9,0-1.8-0.5-2.1-1.6
		c-0.8-3.8-3.4-12.7-1.5-17.7c0-2.2,1.1-4.1,2.2-5.8c2.4-3.8,5.1-7.5,7.6-11.3c0.7-1.1,1.1-2.4,1.7-3.6c0.3-0.6,0.5-1.2,0.8-1.7
		c0.2,0,0.4,0,0.7,0c0.3,1.2,0.7,2.5,0.8,3.7c0.3,2.6,0.8,5.2,0.7,7.8C63,139,62.6,141.3,62,143.5z M69.8,93.6
		c0.3-5.8,0.9-11.6,1.4-17.3c0.1-1.2,0.2-2.5,0.9-3.6c-0.2-0.7,0-1.3,0.3-1.8c0-0.1,0-0.2,0-0.3c0.1-0.5,0.2-1.1,0.4-1.6
		c0.7-1.4,2.2-2.5,3.3-3.5c0.3-0.2,0.6-0.4,0.9-0.4c0.1-0.2,0.1-0.5,0.2-0.7c3.8-0.8,5.2,0.4,4.6,4.2c-0.5,3.2-0.9,6.4-1.5,9.5
		c-1.4,7.3-3.8,14.3-7.2,21c-0.2,0.3-0.4,0.7-0.7,1.1c-0.2-0.3-0.3-0.5-0.6-0.9c-0.5,1.7-0.9,3.2-1.3,4.6c-0.2,0-0.4,0-0.5-0.1
		C69.9,100.3,69.6,96.9,69.8,93.6z M104.1,117.8c-0.1-0.7-0.3-1.3-0.3-1.8c-0.3-4.7,1.2-9,2.8-13.2c1.1-3,2.4-5.9,3.7-8.9
		c0.5-1.1,0.7-2.4,2.3-2.4c1.1,3-2.6,17.2-5.1,19.3C107.2,113.5,106.6,115.9,104.1,117.8z M176,103.5c-0.4,0.9-0.7,1.9-1,2.8
		c-0.8,2.6-2.3,4.7-4.3,6.4c-1.4-0.2-2-1-2.1-2.1c-0.4-3.3-1-6.6-1.2-10c-0.1-2,0.4-4.1,0.5-6.2c0.1-0.9,0-1.9,0-3
		c-0.5-3-0.2-6.6,1.3-8.9c0-0.1,0.1-0.2,0.1-0.3c0.1-0.3,0.2-0.7,0.3-1c0.1-0.3,0.3-0.5,0.6-0.7c0-0.1,0.1-0.2,0.2-0.4
		c-0.1,0-0.2,0-0.3,0c0,0,0,0,0,0l0,0c0,0,0,0,0,0c1.3-1.8,2.5-3.7,3.9-5.7c1.3,1,2.3,1.7,3.6,2.8c0,3.2,0,6.9,0,10.5
		c0,2.4-0.1,4.8,0,7.2C178,98,177.2,100.7,176,103.5z M237.9,85c-1.2,3.3-2.4,6.7-3.8,9.9c-0.4,1.1-1.3,2-1.9,3.1
		c-0.3,0.5-0.6,1.1-0.9,1.7c-0.8,2.3-2.4,3.8-4.1,5.3c-0.2-0.1-0.4-0.3-0.6-0.4c0-0.1,0-0.3,0-0.4c-0.8,0-1.6-0.6-1.7-1.6
		c-0.1-0.8,0-1.6,0.1-2.4c0-0.1,0-0.2,0-0.3c0.3-6.7,0.8-13.3,3.4-19.6c1.1-2.7,3.1-4.4,5.8-5.3c0.5-0.2,1-0.3,1.6-0.5
		c0.4,0.6,0.7,1.2,1.1,1.6c0.9,0.7,0.8,1.6,0.7,2.5c-0.1,1.3,0.2,2.6,0.3,3.9C238.1,83.4,238.1,84.3,237.9,85z M246.9,57.6
		c1.3-8.4,3.3-16.7,6.4-24.6c1-2.6,3.2-4.2,5.3-5.9c0.2-0.2,0.7-0.1,1.1-0.2c0.3,5.4-7.8,29.8-12.9,39c-0.2,0-0.4,0-0.6,0
		C246.5,63.1,246.5,60.3,246.9,57.6z"/>
	<path class="st2" d="M125.3,92c0-1.2-0.1-2.1,0-2.9c0.3-1.4,0.6-2.7,1.2-4c0.6-1.4,0.7-2.7,0.3-4.2c-0.3-1,0.7-2.4,1.3-3.6
		c1,2.4,0.6,4.9,0.8,7.4c0,0.6-0.1,1.2,0,1.8C129.3,89.9,129,89.6,125.3,92z"/>
	<path class="st2" d="M126.9,73.1c0-0.8-0.2-1.5,0-2c1.3-2.6,0.5-5.4,1-8.1c0.4-2,0.9-4,1.4-6c0.2,0,0.4,0.1,0.6,0.1
		c0,1.2,0.1,2.3,0,3.5c-0.2,3.3-0.5,6.7-0.8,10C129,71.9,128.5,72.7,126.9,73.1z"/>
	<path class="st2" d="M64.9,100.5c-1.8-3.6,0.6-7,0.3-10.5c0.1,0,0.3,0,0.4,0c0,3.5,0,7,0,10.5C65.4,100.5,65.2,100.5,64.9,100.5z"
		/>
	<path class="st2" d="M67.3,137.9c0.7,3.6,1.4,7.1,2.2,10.7c-0.2,0-0.4,0.1-0.6,0.1c-1.5-3.4-2.2-6.9-2.3-10.6
		C66.8,138,67,137.9,67.3,137.9z"/>
	<path class="st2" d="M161.8,107.6c-1.5-2.7-0.8-3.8,2.8-5c-0.7,1.7-1.5,3.5-2.2,5.2C162.1,107.7,162,107.6,161.8,107.6z"/>
	<path class="st2" d="M43.9,162.9c0.7-1.3,1.4-2.5,2.2-3.8c1.6,0.5,1.3,1.7,1.6,3.1c-1.3,0.4-2.5,0.8-3.7,1.2
		C44,163.2,44,163.1,43.9,162.9z"/>
	<path class="st2" d="M45.4,159c0.1-0.8,0.2-1.5,0.3-2.3c0.2,0,0.5,0.1,0.7,0.1c-0.1,0.8-0.3,1.5-0.4,2.3
		C45.9,159.1,45.6,159,45.4,159z"/>
	<path class="st2" d="M141.9,85.9c0.2-0.4,0.2-0.7,0.4-0.9c0.3-0.3,0.6-0.4,1-0.6C143.5,85.7,143.5,85.7,141.9,85.9z"/>
	<g>
		<path class="st9" d="M415.5,107.6c-0.5,0.7-0.9,1.1-1.1,1.6c-1,2.6-3.2,3-5.6,3c-0.5,0-0.9-0.1-1.4-0.1c-2.1-0.1-3.5-1-4-2.9
			c-0.5-2.4-1-4.9-1.1-7.3c-0.1-3.2,0.3-6.4,0.3-9.6c0-6.6,2.9-12.3,5.5-18.1c0.6-1.3,1.7-2.5,2-3.9c0.7-3.1,1.3-6.3,1.6-9.5
			c0.2-2,0.4-4.3-1.7-6.1c-1.5,1.1-3,2.1-4.3,3.3c-0.5,0.5-0.6,1.4-0.9,2.1c-0.2,0.5-0.6,0.9-0.8,1.4c-1.5,3.8-3.4,7.4-4.5,11.3
			c-1.6,5.7-2.5,11.5-3.8,17.3c-0.2,0.8-0.4,1.7-0.9,2.4c-1.7,2.8-3.2,5.6-6.1,7.5c-2.2,1.5-4.8,1.8-7.2,3.3c-0.3-0.9-0.6-1.4-0.6-2
			c0.2-2.4,0.3-4.8,0.7-7.2c0.2-1.1,0.8-2.4,1.6-3.2c3.8-3.9,6.2-8.6,8.6-13.3c0.9-1.7,0.5-2.7-1.1-3.7c-1.3-0.8-2.6-1.4-4-2.1
			c-4,2.1-7.2,4.9-8.6,9.4c-0.7,2.4-1.3,4.8-1.9,7.2c-0.4,1.7-1.5,2.8-3,3.6c-2.8,1.4-4.6,0.2-4.9-2.8c-0.2-3.1-0.5-6.2-1.1-9.1
			c-0.5-2-0.1-3.4,0.9-5.1c0.8-1.4,1.3-3.1,1.7-4.7c0.1-0.5-0.2-1.4-0.6-1.7c-0.8-0.7-1.8-1.1-2.8-1.6c-0.3,0.3-0.7,0.6-0.8,0.9
			c-0.8,2.3-1.5,4.6-2.2,6.9c-0.4,1.2-0.5,2.5-1,3.7c-3.5,6.8-7.4,13.4-13.3,18.5c-1.1,1-2.5,1.6-4.1,2.6c-0.4-1.8-0.8-3.1-1-4.3
			c-0.4-3.3-0.8-6.8,0.4-10c1.1-2.9,2.7-5.7,4.1-8.5c1.1-2.2,0.6-4.9-1.2-6.7c-1-1-1.8-2.1-2.8-3.1c-0.7-0.7-1.4-1.6-2.2-1.7
			c-1.2-0.2-1.5,1-2,1.9c-0.6,1.3-1.5,2.5-2.3,3.7c-0.3,0.4-0.8,0.8-1,1.3c-1.1,2.6-2.2,5.3-3.3,7.9c-0.3,0.8-0.9,1.5-1.3,2.2
			c-0.2-0.1-0.4-0.1-0.6-0.2c-0.1-0.8-0.3-1.7-0.1-2.5c0.1-0.8,0.7-1.4,0.9-2.2c0.7-3.6,1.3-7.2,2-10.8c0.3-1.7-0.4-2.9-1.1-4.3
			c-2.3,0.8-3,2.5-3.2,4.6c-1.7,0.7-2.2,2.2-2.7,3.7c-0.7,1.9-1.7,3.8-2.7,5.6c-2,3.4-4.1,6.9-6.2,10.2c-0.8,1.3-1.9,2.4-3,3.4
			c-0.5,0.5-1.4,0.6-2.1,0.9c-1-2.1-1.6-4.1-1.3-6.1c0.4-3.2,0.7-6.4,1.4-9.5c0.7-3.4,1.7-6.8,2.5-10.2c0.1-0.6,0.2-1.6-0.2-1.8
			c-1.7-1.1-3.4-2-5.5-3.1c-0.9,3.2-1.8,5.8-2.4,8.6c-0.9,4.4-1.5,8.8-2.4,13.2c-0.3,1.3-0.7,2.7-1.5,3.7c-1.9,2.4-3.9,4.7-6.1,7
			c-1.2,1.3-2.7,2.4-4.2,3.4c-0.6,0.4-1.7,0.5-2.4,0.2c-0.4-0.2-0.6-1.4-0.6-2.1c0.1-1.1,0.5-2.2,0.6-3.4c0.4-3.3,0.7-6.7,1.2-10
			c0.6-3.4,1.5-6.7,2.3-10c1.1-4.7,2.2-9.4,3.5-14.1c0.4-1.5,1.3-2.8,1.6-4.3c0.5-2.7,0.6-3.1,3.3-3.8c1.3-0.3,2.6-0.4,4-0.6
			c3.7-0.6,7.4-1.3,11.1-1.7c6.1-0.6,12.4-0.5,18.4-1.4c4.7-0.7,9.6,0.1,14.2-1.9c2.1-0.9,4.4-1.1,6.5-2c2.6-1.1,5-2.8,7.4-2.8
			c1.4-1.7,2.5-3,3.5-4.2c2.4-2.8,5.4-5.3,4.4-9.7c-0.1-0.5,0.1-1.1,0.2-1.6c0-0.9,0.1-1.7,0-2.6c-0.2-1.2-0.6-2.5-0.4-3.8
			c0-0.2-0.1-0.3-0.1-0.5c-0.4-0.8-1.1-1.5-1.8-2.2c-2.1,0-4.1,0.3-6,1c-1,0.4-1,1.5-0.3,2.4c0.9,1.1,2.2,1.5,3.6,1.1
			c0.9-0.2,1.8-0.3,3-0.6c0.2,1,0.5,1.7,0.4,2.5c-0.2,2.1-0.5,4.3-0.9,6.4c-0.2,0.8-0.7,1.7-1.3,2.1c-1.4,1-2.1,2.2-2.6,3.7
			c-0.1,0.4-0.3,0.8-0.6,1c-1.4,1.2-2.9,2.3-4.4,3.4c-0.8,0.5-1.6,1.1-2.6,0.6c-0.4,0.4-1,0.6-1.5,0.6c-1.2,0.9-2.4,1.8-3.7,2.2
			c-3.7,1.1-7.5,1.7-11.3,2.4c-0.9,0.2-1.9-0.1-2.8,0c-1.3,0.1-2.6,0.4-3.9,0.6c0,0.2,0,0.3,0.1,0.5c-11,0.5-22.1,1.1-33.4,1.7
			c0-0.6-0.2-1.4,0-2c0.4-1.4,1-2.8,1.5-4.1c0.3-0.8,0.9-1.6-0.2-2.4c-0.5,0.4-1,0.8-1.7,1.2c-2.5-0.9-5.1-1.8-7.9-2.9
			c-0.1,0.8-0.3,1.5-0.1,2c0.9,3.2-0.3,6.2-0.9,9.3c-0.2,1.2-0.9,1.8-2.1,2.2c-5.3,1.6-10.7,3.2-15.9,5.1c-5.3,1.9-10,4.7-12.9,10
			c-1.7,3.1-1.7,5.6,0.3,8.4c1.1,0.2,2.1,0.5,3,0.6c1.2,0.1,2.4,0.3,3.6,0.1c1.6-0.2,2.8-1.8,2.6-3.1c-1.4,0.4-2.9,0.9-4.4,1.1
			c-1.3,0.2-2.5-0.6-2.4-1.8c0.1-2.1-0.4-4.3,1-6.2c1.8-2.4,4.1-4.2,6.8-5.4c5.5-2.4,11.1-4.3,17-5.5c0.5-0.1,1.1,0,1.8,0
			c-0.3,2.5-0.5,3.2-0.5,3.2c0,0.7,0.1,1.2,0,1.7c-0.3,1.4-0.7,2.9-0.9,4.3c-1.2,6.8-2.6,13.6-3.4,20.4c-0.6,5.5-0.6,11.1-0.7,16.6
			c0,2.5,2.2,3.9,4.7,3c0.7-0.2,1.3-0.6,1.9-1c1.5-1,3.1-2,4.4-2.9c1.7-4.2,5-7.3,7.6-11.1c0.3,0.6,0.6,0.9,0.6,1.3
			c0.3,1.8,0.5,3.6,0.9,5.3c0.4,1.5,0.9,2.9,1.7,4.2c0.8,1.4,2,1.7,3.2,0.7c2.7-2.2,5.5-4.3,7.7-7c2.5-3.1,4.3-6.8,6.5-10.2
			c0.7-1.1,1.5-2.2,2.2-3.3c0.2,0.1,0.4,0.2,0.6,0.3c-0.8,3.8-1.8,7.5-2.4,11.3c-0.6,3.8-1.5,7.6-0.2,11.6c0.9-0.6,1.7-1.2,2.2-2
			c2.1-3.4,4.1-6.9,6.1-10.4c0.1-0.2,0.2-0.5,0.3-0.8c0.7-2.4,1.4-4.7,2.2-7.1c0.3-0.9,0.8-1.9,2-1.6c1.2,0.3,1.1,1.4,1,2.3
			c-0.1,0.4-0.2,0.8-0.3,1.2c-0.5,3-1.1,6.1-1.5,9.1c-0.5,3.6,0.2,6.9,2.5,9.9c0.9,1.1,1.5,2.5,2.3,3.9c1-0.5,2.3-1,3.5-1.7
			c0.3-0.2,0.9-0.4,0.9-0.7c0.4-1.7,1.8-2.2,2.9-3.2c1.6-1.5,3.2-3,4.7-4.6c1.7-1.8,3.2-3.7,5.1-5.9c0.8,1.9,1.6,3.5,2.3,5.1
			c-0.2,0.3-0.2,0.5-0.4,0.6c-0.2,0.2-0.4,0.4-0.6,0.5c-2.8,0.9-4.6,3.2-6.6,5.1c-1.9,1.8-1.8,4.7,0.4,6.1c1.6,1,3.6,2,5.3,2
			c2.5,0,4.9-1,7.4-1.5c0.1-1.3,0.5-2.1,0.8-3c0.7-1.8,1.5-3.6,2-5.5c0.6-2.6,1.7-3.6,4.6-3.5c0.2,4.4-1.5,8.9,0.7,12.9
			c2.4,1.9,5,1.6,7.8,1.6c-0.3-0.4-0.5-0.7-0.6-0.8c1.2-1.1,2.2-2.1,3.3-3.1c2-1.8,4.1-3.6,6.2-5.4c0.5-0.4,1.2-0.5,2.1-0.7
			c0.6,4.6,1.1,8.9,1.7,13.3c2.3,0.5,4.5,0.8,6.6,1.4c3.6,0.9,7,0.1,10.2-1.3c1.4-0.6,2.3-2.4,3.4-3.8
			C415.9,108.6,415.6,108.2,415.5,107.6z M408.9,62.3c1.2,3.1-1.6,5.1-1.6,8.3C405.3,68.5,406.4,63.7,408.9,62.3z M388.1,77.3
			c0.3,2.8-1.1,5.4-3.4,6.1C385.2,81,386.6,79.2,388.1,77.3z M358.5,103.8c-2.1-1.3-2.4-3.2-0.6-4.7c1.2-1,2.8-1.7,4.2-2.5
			c0.1,0.2,0.2,0.4,0.4,0.5c-0.3,0.6-0.6,1.2-0.9,1.7C362,101.5,361.2,102.8,358.5,103.8z"/>
		<path class="st9" d="M309,80.1c1.1,2.6-0.8,4.7-1.1,7C307.6,84.7,307.3,82.3,309,80.1z"/>
		<path class="st9" d="M381.6,85.1c-0.7-2.2,0.9-3.5,1.4-5.5C383.7,81.6,383.2,83.4,381.6,85.1z"/>
	</g>
	<g>
		<path class="st9" d="M528.4,113.4c-1.6-0.9-3.6-0.9-4.9,0.2c-1.3,1.1-1.7,3.2-1,4.8c0.8,1.6,2.4,2.4,4.4,2
			c0.6-0.1,1.2-0.3,1.9-0.4c1,3.2-0.1,5.9-1.7,8.3c-1.3,2-2.8,3.7-4.3,5.6c-2.6,3.2-6,5.1-9.9,6.1c-1.7,0.4-2.6-0.6-2.2-2.3
			c0.2-0.7,0.6-1.3,1-2c1.1-1.9,2.2-3.8,3.4-5.7c0.8-1.2,0.7-2.2-0.9-3.1c-0.5,0.7-0.9,1.3-1.3,1.9c-0.8,1.1-1.6,2.2-2.5,3.4
			c-0.5,0.6-1,1.2-1.4,1.9c-1,1.6-2.5,2.2-4.8,1.6c0.1-1.4-0.1-2.9,0.4-4.2c2.1-4.7,4.7-9.2,8.3-13c0.5-0.5,0.7-1.3,1-1.9
			c-0.1-0.2-0.2-0.3-0.4-0.5c-2.7,0.3-5.4,0.6-7.6,0.9c-1.9,2.6-3.4,4.8-5,7c-3.2,4.2-7.6,6.7-12.5,8.2c-0.6,0.2-1.3,0.3-2,0.3
			c-1.6-0.1-1.9-0.6-1.9-2.2c0-3.4,2.3-5.2,4.8-6.6c4.1-2.3,7.1-7.8,6.4-12.5c-0.3-1.7-2.5-3.4-4-2.6c-2.8,1.4-6.1,2.4-6.9,6.1
			c-0.1,0.6-0.5,1.1-0.8,1.6c-1.6,2.7-3.5,5.4-3.3,8.8c0,0.4-0.3,0.9-0.4,1.3c-3.3,0.8-5.8,3.8-9.8,3.1c0.1-1.2,0.1-2.2,0.2-3.2
			c0.7-4.7,3.7-8.4,6.1-12.3c1.1-1.8,1.5-3.6,1.3-5.5c-0.1-1.4-0.8-2.4-2.3-2.6c-3.1-0.4-6.1-1.1-8.7-3.8c-0.8,0.8-1.5,1.4-2,1.9
			c2.2,3.5,2.2,4.1,1.5,6.1c-2.1,5.5-6.5,8.7-11.4,11.3c-2.7,1.4-5.7,2.3-8.8,2.5c-3.8,0.3-7.3-2.4-7.3-6.2c0-2.2,0.7-4.5,0.7-6.7
			c0-2.7,0.8-5,1.8-7.3c0.5-1.2,1.2-2.4,1.8-3.6c2.9-5.9,6-11.7,10.4-16.7c2.7-3.1,7.3-4,11.1-2.2c-0.1,1.5-1.5,1.9-2.5,2.6
			c-2.4,1.6-4.8,3.1-7.2,4.7c-1.1,0.7-2.1,1.4-3.2,2.2c-0.1-0.1-0.3-0.2-0.4-0.3c-1.4,3-2.9,5.9-4.2,9c-0.6,1.5,0.4,3.3,2.3,3.7
			c2.6,0.5,5.3,0.7,7.6-1.2c1.6-1.3,3-2.8,4.6-4.1c3.5-3,5.7-6.8,6.6-11.4c0.1-0.7,0.4-1.4,0.6-1.8c4.4-1.5,7.6,0.7,10.7,3
			c1.1-0.6,1.2-1.3,0.7-2c-1.5-2.1-3.2-3.8-5.9-4c-1.3-0.1-2.6-0.5-4-0.5c-1.2-0.1-2-0.6-2.6-1.6c-2.1-3-5.2-4-8.6-3
			c-0.6,0.2-1.3,0.3-2,0.4c-4.2,0.7-8,2.1-11.1,5.1c-1.3,1.2-2.5,2.4-3.6,3.8c-4.4,5.1-8.6,10.3-9.5,17.3c-0.8,5.8-2.4,11.6-1,18.2
			c0.7,0.6,1.9,1.7,3,2.7c3.1,2.9,6.4,4.8,10.8,4.2c2.9-0.4,5.8-1,8.6-1.5c0.6-0.5,1.1-1.1,1.8-1.5c1.7-1.1,3.4-2.1,5.1-3.2
			c2.7-1.8,5.1-3.8,6.6-6.9c0.6-1.3,1.6-2.4,3.3-2.9c0.7,2,0.2,3.8-0.6,5.5c-1.9,3.6-3.5,7.3-4.4,11.3c-0.7,3.1,1.2,5.7,4.2,5.2
			c2.4-0.4,4.7-0.8,7.2-1.2c0.5-0.4,1.1-0.9,1.9-1.6c0.3,2.4,1.2,4.1,3,4.9c2.1,0.9,4.3,1.7,6.6,0.5c1.5-0.8,2.9-1.6,4.4-2.4
			c1.8-1,3.7-2.1,5.9-3.3c-0.1,1.4-0.1,2.3-0.2,3.2c-0.3,3.9,1,5.8,5.2,6.4c0.2,0,0.4,0,0.6,0c1.4-0.2,2.5,0.3,3.5,1.5
			c1.2,1.5,2.7,2.1,4.7,1.2c1.6-0.8,3.4-1.3,5-2.1c1.4-0.7,2.8-1.4,3.9-2.5c2.2-2.1,4.2-4.5,6.2-6.8c1-1.2,2.2-2.6,2.5-4
			c0.5-3.1,0.5-6.3,0.5-9.4C531.1,116.1,530.2,114.5,528.4,113.4z M491.3,114.5c1.5,0.9,1.6,1.9,0.8,2.6c-1.6,1.6-3.3,3-5,4.4
			C488.1,119.1,489.7,116.8,491.3,114.5z M460.6,93c-0.5,0.6-0.8,1.4-1.2,2c-1.5,2.7-3.3,5-6.7,5.5c-1.7,0.2-2.5-0.6-1.8-2.2
			c0.5-1.1,1.3-2.2,2.1-3.1c1.6-1.8,3.3-3.7,5.1-5.3c1.6-1.3,3.5-2.2,5.2-3.3c0.1,0.1,0.3,0.3,0.4,0.4C463.2,89.2,462,91.1,460.6,93
			z"/>
		<path class="st9" d="M436.3,104.5c1.2,2.9,1,4.3-0.9,6.3C434.4,108.9,434.7,106.3,436.3,104.5z"/>
	</g>
	<path class="st7" d="M96.1,69.2c-0.3,0.8-0.3,0.8-1.3,1.2c-0.4,1-0.7,2-1.1,3c0.1,0.1,0.2,0.1,0.3,0.2c0.3-0.3,0.6-0.5,1-0.9
		c0.3,0.3,0.7,0.6,0.8,1c0.4,0.9,0.9,1.6,1.8,2.1c0.5,0.2,0.6,0.8,0.1,1.1c-0.9,0.5-1.6,1.5-3,1c0.1,0.3,0.2,0.6,0.4,0.9
		c0.2,0.3,0.4,0.6,0.8,1c-1,0.5-1.9,0.9-2.9,1.4c0.2,1.5,0.4,2.8,0.7,4.1c-0.1,0-0.3,0.1-0.4,0.1c-1.6-1.6-1.5-4.1-2.9-6.2
		c-0.3,0.7-0.7,1.2-0.8,1.7c-0.2,0.8-0.6,1.2-1.6,1.3c0-0.8,0-1.6,0-2.4c-0.8-0.1-1.7-0.1-2.6-0.3c-0.7-0.1-1.3-0.4-1.9-0.7
		c-0.3-0.2-0.7-0.8-0.6-1c0.2-0.4,0.6-0.7,1-0.8c0.5-0.1,1,0,1.6,0c0.4,0,0.7,0.1,1.1,0c0.8-0.1,1.6-0.4,1.7-1.3
		c0.2-0.9-0.7-1.1-1.2-1.6c0,0.1,0,0.2-0.1,0.3c-0.9,0-1.9,0.2-2.8,0.1c-0.8-0.1-1.3-0.5-1.4-1.4c0-0.3-0.4-0.6-0.6-0.8
		c-0.2-0.2-0.4-0.4-0.6-0.7c0-0.1,0.1-0.2,0.1-0.3c0.6,0.1,1.1,0.3,1.7,0.2c0.5,0,1-0.3,1.8-0.5c0.7,0.3,1.5,0.7,2.6,1.2
		c-0.2-0.9-0.4-1.7-0.6-2.4c0.4-0.1,0.6-0.3,0.7-0.3c1.2,0.1,2.2-0.1,3.1-1c0.4-0.4,1.3-0.3,1.9-0.1C93.9,68.6,95.2,68.2,96.1,69.2z
		"/>
	<path class="st5" d="M252.3,59.1c2.2-5.7,4.6-11.3,6.6-17.1c2-5.8,3.5-11.8,5.3-17.7c0.1-0.3,0.1-0.5,0.1-0.8
		c0.1-1.9-0.7-2.6-2.5-2.2c-2.6,0.6-4.5,2.1-5.6,4.4c-2.3,4.7-5.1,9.3-6.8,14.2c-1.8,5.3-2.5,11-3.7,16.5c-0.8,3.5-1.5,7.1-2.3,10.6
		c-0.2,0.8-0.8,1.5-1.1,2.1c-2-2-3.8-3.7-5.7-5.6c-1.2,1.1-2.7,1.1-4.1,1c-0.5,0.5-1.1,1.1-1.7,1.6c-0.3,1.6-1.7,2.3-2.7,3.2
		c-1.1,1.1-2.6,1.7-3.9,2.5c0.6,2.9-1,4.8-2.6,6.7c-0.1,0.8-0.1,1.7-0.4,2.5c-1.3,3.6-3.1,7-3.2,10.9c-0.1,2.6-0.2,5.2-0.3,7.6
		c-1.4,0.4-2.5,0.7-3.5,0.9c-3,0.8-4.2,0-4.5-3.1c-0.2-2-0.1-4-0.1-6c-0.1-5.8,1.1-11.2,4.2-16.1c0.4-0.6,0.7-1.3,1.1-2.1
		c-1.1-0.8-2.1-1.8-3.2-2.2c-3.4-1.2-5.6-3.6-7.2-6.4c0.2-1.1,0.3-1.8,0.5-2.6c-3,0-4.4,1.2-4.7,4c-0.1,1,0,2-0.2,3
		c-1,4.2-2.1,8.4-3.2,12.6c-0.8,2.7-1.6,5.4-2.6,8c-1.1,2.6-2.4,5.1-3.8,7.5c-1,1.7-1.7,3.8-4,5.1c-0.1-1-0.2-1.6-0.2-2.2
		c0.1-3.5,0.1-7,0.5-10.4c0.4-4.1,1.1-8.2,1.8-12.3c0.3-1.8,0.8-3.6,0.9-5.3c0.2-1.7-0.6-2.3-2.3-2.2c-1.9,0.1-3.8,0-5.7,0
		c0-0.2,0.1-0.3,0.1-0.5c-0.6-0.6-1.2-1.5-1.9-1.7c-2.5-0.7-5.1-1.4-7.3,0.9c-0.7,0.8-1.8,1.2-2.6,2c-1,1-2.1,2-2.6,3.2
		c-1.3,3.2-2.5,6.4-3.4,9.7c-0.7,2.6-1.3,5.3-1.9,8c0.1,3.9,0.2,7.8,0.2,11.7c0.7,1.6,0.7,3.3,0.7,5c0,3.2-1.4,6-3.9,8.1
		c-1.4,1.2-4.1,0.8-4.4-0.8c-0.6-2.9-1.3-5.8-1.2-8.7c0.3-5.9,1.2-11.7,1.8-17.6c0.3-2.9,0.6-5.8,0.8-8.2c-2.1-1.5-3.9-2.6-5.7-3.9
		c-0.1-0.2-0.1-0.5-0.2-0.7c-0.1-0.1-0.3-0.1-0.4-0.2c-0.5-0.4-1-0.8-1.4-1.2c-0.7-0.2-1.3-0.8-1.9-1.4c-1.9-1.6-3.5-1.1-3.9,1.2
		c-0.5,2.6-1,5.3-1.5,7.9c-1.4,7-3.5,13.7-6,20.4c-0.3,0.8-0.6,1.6-0.9,2.4c-0.1,0-0.3-0.1-0.4-0.1c-0.2-2.7-0.4-5.5-0.5-8.2
		c0-0.6,0.3-1.3,0.5-1.9c1.2-3.8,2.6-7.5,3.5-11.3c1-4.2,1.3-8.5,2.4-12.6c2.2-7.8,2.8-15.7,2.4-23.7c-0.2-3.4-0.7-6.8-1.2-10.2
		c-0.2-1.6-1.1-2.3-2.6-2.1c-0.8,0.1-1.7,0.4-2.2,0.9c-2,2.1-4.1,4.1-5.6,6.5c-2.6,4.1-3.1,9-3.6,13.7c-0.7,6.5-0.7,13-0.9,19.5
		c-0.1,3.3,0,6.6-0.1,9.8c-0.1,7.3-0.1,14.6-0.3,21.9c0,1.7-0.2,3.3-0.6,4.9c-0.6,2.3-1.2,4.6-2.2,6.7c-1.3,2.9-2.7,5.7-4.4,8.3
		c-1.1,1.7-3.2,2.6-5.3,2.3c-2.4-0.3-3.8-2-4.5-4.3c-0.6-2.2,0-4.2,0.7-6.3c1.9-6.3,5.1-12.2,7.4-18.4c1.9-5,1.6-10,1.6-15.1
		c0-1.3-0.5-2.8-1.9-3c-1.9-0.4-4.1-0.8-5.7,0.9c-1.9,2-3.6,4.1-5.4,6.1c0.2,0.1,0.3,0.2,0.5,0.2c-0.1,1.1-0.1,2.3-0.5,3.2
		c-1.2,2.7-2.7,5.2-3.9,7.9c-1.2,2.9-2.6,5.8-3.1,8.9c-0.5,3.7-0.3,7.6-0.1,11.4c0.2,3.1,0.2,6.3,1.6,9.3c0.3,0.7,0.1,1.8-0.3,2.5
		c-1.3,2-2.8,3.9-4.2,5.9c-0.1,0-0.1,0-0.2,0c-0.1,0.3-0.3,0.6-0.6,0.8c-0.1,0.1-0.2,0.1-0.3,0.2c0.1,0.1,0.2,0.3,0.4,0.4
		c-1.4,0.4-2.4,0.7-3.6,1.1c0-0.1,0-0.2-0.1-0.3c-0.8,0-1.5-0.4-1.8-1.2c-0.5-1.5-0.5-3.1-0.1-4.6c-0.2-0.7-0.4-1.3-0.4-1.9
		c0.1-4.8,0-9.5,0.5-14.3c0.5-4.7,0-9.5,1.6-14.1c0.1-0.2,0-0.5,0-0.8c0-2.6-0.2-5.2-0.1-7.8c0-1.2,0.4-2.5,0.5-3.7
		c0.3-1.8,0.4-3.7-0.1-5.5c-0.5,0-0.8-0.1-1,0c-1.3,0.6-2.7,1.2-4,1.9c-2.7,1.4-3.4,2.7-2.9,5.8c0.2,1.3,0.8,2.8,0.3,3.9
		c-0.9,2.4-0.2,4.7-0.4,7c-0.3,3.9-0.4,7.9-0.5,11.8c-0.1,5.1-0.2,10.2,0.2,15.3c0.3,4.2-1.1,7.9-2.6,11.6c0,0-0.1,0.1-0.1,0.1
		c-0.1,1-1.3,1.6-2.2,1.5c-1.1-0.2-1.7-1.2-1.6-2.2c0-0.2,0-0.4,0.1-0.6c-0.2-1.5-0.4-2.8-0.6-4.1c-0.6-5.3-1.3-10.5-1.9-15.8
		c-0.4-3.3-0.8-6.7-0.8-10c-0.1-5.3,2.5-9.9,4.6-14.6c1.5-3.3,3.3-6.4,4.1-10c0.7-3.1,1.7-6.2,2.6-9.3c1.6-5.6,2.4-11.4,2.3-17.2
		c0-1.6-0.5-3.1-1.9-4c-2.5-1.6-5.1-1.8-7.8-0.6C76,57.9,75,58.3,74.4,58c-2.1-0.7-3.1,0.7-4.2,2c-0.4,0.4-0.3,1.2-0.6,1.6
		c-2.2,3.3-4.1,6.8-4.8,10.7c-1,5.2-1.5,10.5-1.9,15.7c-0.3,3.7-0.1,7.5-0.1,11.3c0,3.3-0.5,4-3.8,4.4c-2.2,0.3-3.8,1.2-4.7,3.2
		c-0.3,0.7-1,1.2-1.5,1.9c-1.5,2-3.3,3.9-4.4,6.2c-1.5,3.3-2.6,6.8-3.5,10.2c-0.9,3.6-1.4,7.4-2,11.1c-0.4,2.8-0.5,5.6-0.8,8.4
		c-0.1,0.7-0.6,1.6-1.1,1.9c-3.1,1.8-6.5,2.6-10,1.9c-5.6-1.1-9.6-4.7-12.9-9c-2.6-3.5-3.6-7.7-4.6-11.9c-0.5-1.9-0.6-4-0.8-6
		c-0.6-4.8-1.6-9.6-1.2-14.6c0.5-5.9,0.2-11.9,2.5-17.6c1.8-4.5,3.7-8.8,7.5-12c5.1-4.4,11.3-5.5,17-0.4c1.7,1.6,2.9,3.7,4.6,6
		c-0.3-1.3-0.4-2.5-0.9-3.4c-2.1-4.1-5.8-6-10-7.1c-2.3-0.6-4.5-0.2-6.7,0.6c-4.5,1.8-7.2,5.6-9.7,9.3c-2.7,4-4,8.7-4.7,13.5
		c-0.3,2.1-0.4,4.1-0.5,6.2c-0.2,2.9-0.7,5.9-0.5,8.8c0.4,5.3,1.2,10.6,1.9,15.9c0.4,2.8,0.6,5.8,1.8,8.2c1.7,3.5,3.2,7.3,6.5,9.8
		c0.9,0.7,2,1.3,3,2c4,3,8.5,4.2,13.4,3.4c1.5-0.2,3.1-0.3,4.8-0.5c0.1,1.2,0.1,2,0.1,2.8c0.3,3.3,0.3,6.6,0.9,9.8
		c0.5,2.9,2,5.4,4.5,7.1c1.2,0.8,2.7,1.1,4,0.4c3.1-1.8,6-3.8,7.8-7.1c1.4-2.6,2.6-5.1,3.2-8.1c0.9-4.4,2.6-8.6,4-12.9
		c0.1-0.4,0.4-0.8,0.7-1.5c0.4,1.2,0.7,2.2,1,3.1c0.3,0.8,0.5,1.5,0.6,2.3c0.4,0.3,0.6,0.8,0.6,1.5c0.3,0.2,0.5,0.4,0.7,0.7
		c0.1,0.2,0.2,0.4,0.3,0.5c1.5,0.7,3,1.9,4.2,3.2c0.8-0.1,1.6,0,2.4,0.4c0.2,0.1,0.7-0.1,0.9-0.3c0.9-0.8,2.1-1.6,2.7-2.6
		c1.2-2.2,2.1-4.5,3-6.8c0.4-1,0.9-1.6,2.3-1.4c1.2,3.1,3.7,3.9,6.6,2.9c2.3-0.7,4.1-2.4,5.5-4.5c1.4-2,2.8-3.8,4.2-5.7
		c0.7,0.4,1.1,0.5,1.4,0.7c3.6,2.4,7.1,1.9,10.5-0.3c1.3-0.9,2.6-1.8,4-2.6c0.3-0.2,0.7-0.2,0.8-0.2c1.8-2.3,5.2-7.3,6.9-9.5
		c0.6,0.4-0.5,3.7,0.1,4.1c-0.6,0.6-1,1.1-1.7,1.8c0.8,0.4,1.3,0.8,1.9,0.8c1.7,0.2,3.3,0.3,5,0.3c1.3,0,2-1,2.2-2.4
		c0.5-3.2,0.8-6.4,2.1-9.4c-0.1-0.4-0.1-0.9,0.1-1.2c-0.2-0.6-0.2-1.2,0-1.7h-0.1c2.1-9.4,4.3-18.7,7.8-27.9
		c1.4,1.6,2.6,2.8,3.7,4.1c0.4,0.5,0.7,1.2,0.7,1.8c0.1,2.1,0.2,4.2-0.1,6.2c-1.2,6.6-0.1,12.9,1.5,19.3c0.1,0.5,0.5,1,0.9,1.3
		c2.7,2.4,6.6,2.7,9.3,0.4c1.7-1.5,3.2-3.3,4.6-5.1c0.6-0.8,0.8-1.9,1.4-3.1c0.5,0.8,0.8,1.3,1.1,1.8c1.2,2,2.9,2.8,5,1.9
		c1.8-0.8,3.6-1.9,4.9-3.3c1.5-1.5,2.5-3.4,3.7-5.2c0.2-0.3,0.5-0.5,0.9-0.8c0.5,1.6,1,3.1,1.5,4.5c2.6-0.8,5.3-2.8,6.6-4.9
		c1.1-1.6,1.9-3.2,3.1-4.7c3.4-4.4,5.2-9.5,6.9-14.7c1.2-3.6,1.8-7.4,2.7-11.1c0.3-1,0.3-2.3,1.6-2.9c0.2,0.4,0.5,0.6,0.5,0.9
		c0.1,3.5,0.4,7.1,0.3,10.6c-0.1,4.3-0.6,8.6-0.6,12.8c0,3.1,1.8,5.5,4.3,7.1c0.9,0.6,2.2,1,3.2,0.8c2.7-0.4,5.3-1.3,8-2
		c0.5,0.5,1.2,1,1.7,1.6c2,2.2,4.4,2,6.9,1.4c3.7-1,5.9-4,7.9-6.8c2.2-3.2,3.6-7,5.2-10.6c0.9-2,1.7-4.1,2.6-6.1
		c0.2,0,0.4,0.1,0.6,0.1c0.1,0.6,0.3,1.3,0.3,1.9c0.5,3.6,1,7.2,1.6,10.7c0.1,0.8,0.6,1.8,1.2,2.1c3.6,2,7.9,1.4,11-1.5
		c1-1,1.8-2.3,2.4-3.6c0.5-1.1,0-2.2-1.6-2.8c0,0.9,0.1,1.5,0,2.1c-0.1,0.6-0.5,1.2-0.9,1.6c-0.7,0.7-1.5,1.2-2.6,2h-1.2
		c-0.4-0.5-0.8-0.9-1.2-1.3c-0.8-1-1.7-2-2.4-3.1c-2.1-3.4-2-7.3-2.2-11.1c-0.2-4.2-0.4-8.5,1.4-12.5
		C250.3,64.1,251.3,61.6,252.3,59.1z M133.2,66.6c0.1-2.8,0.3-5.6,0.6-8.4c0.5-5.7,1.1-11.4,1.7-17.2c0.2-1.4,0.7-2.7,2.4-3.9
		c0.4,1.8,0.9,3.3,1,4.8c0.3,4.1,0.3,8.2,0.5,12.2c0.2,4.7-0.8,9.2-1.8,13.7c-1,4.6-1.8,9.3-2.7,14c-0.4,1.9-1,3.7-1.4,5.5
		c-0.1,0-0.2-0.1-0.3-0.1c0-1.9,0-3.8,0-5.7c0-1.3,0-2.7,0-4C133.2,73.9,133.1,70.2,133.2,66.6z M53.4,120.2c0.6-1,0.5-2.4,1.1-3.4
		c1.1-2.2,2.4-4.4,3.7-6.6c0.2-0.3,0.5-0.6,0.8-0.9c2.2-1.8,3.4-1.4,4,1.5c0.7,3.4-0.4,6.3-1.7,9.3c-1.9,4.5-3.9,9-6.8,12.9
		c-0.7,1-1.6,1.9-2.4,2.8c-0.2,0-0.4,0-0.7-0.1c-0.2-0.6-0.6-1.3-0.5-1.9C50.9,129.1,51.1,124.5,53.4,120.2z M64.5,139.7
		c-1.8,6-3.9,11.8-5.8,17.8c-0.5,1.7-1.3,3.1-2.4,4.3c-0.2,0.8-0.9,1.3-1.6,1.3c0,0-0.1,0.1-0.1,0.1c0,0,0-0.1,0-0.1
		c-0.9,0-1.8-0.5-2.1-1.6c-0.8-3.8-3.4-12.7-1.5-17.7c0-2.2,1.1-4.1,2.2-5.8c2.4-3.8,5.1-7.5,7.6-11.3c0.7-1.1,1.1-2.4,1.7-3.6
		c0.3-0.6,0.5-1.2,0.8-1.7c0.2,0,0.4,0,0.7,0c0.3,1.2,0.7,2.5,0.8,3.7c0.3,2.6,0.8,5.2,0.7,7.8C65.5,135.1,65.2,137.4,64.5,139.7z
		 M72.4,89.7c0.3-5.8,0.9-11.6,1.4-17.3c0.1-1.2,0.2-2.5,0.9-3.6c-0.2-0.7,0-1.3,0.3-1.8c0-0.1,0-0.2,0-0.3c0.1-0.5,0.2-1.1,0.4-1.6
		c0.7-1.4,2.2-2.5,3.3-3.5c0.3-0.2,0.6-0.4,0.9-0.4c0.1-0.2,0.1-0.5,0.2-0.7c3.8-0.8,5.2,0.4,4.6,4.2c-0.5,3.2-0.9,6.4-1.5,9.5
		c-1.4,7.3-3.8,14.3-7.2,21c-0.2,0.3-0.4,0.7-0.7,1.1c-0.2-0.3-0.3-0.5-0.6-0.9c-0.5,1.7-0.9,3.2-1.3,4.6c-0.2,0-0.4,0-0.5-0.1
		C72.5,96.4,72.2,93,72.4,89.7z M106.7,113.9c-0.1-0.7-0.3-1.3-0.3-1.8c-0.3-4.7,1.2-9,2.8-13.2c1.1-3,2.4-5.9,3.7-8.9
		c0.5-1.1,0.7-2.4,2.3-2.4c1.1,3-2.6,17.2-5.1,19.3C109.8,109.6,109.2,112,106.7,113.9z M178.6,99.6c-0.4,0.9-0.7,1.9-1,2.8
		c-0.8,2.6-2.3,4.7-4.3,6.4c-1.4-0.2-2-1-2.1-2.1c-0.4-3.3-1-6.6-1.2-10c-0.1-2,0.4-4.1,0.5-6.2c0.1-0.9,0-1.9,0-3
		c-0.5-3-0.2-6.6,1.3-8.9c0-0.1,0.1-0.2,0.1-0.3c0.1-0.3,0.2-0.7,0.3-1c0.1-0.3,0.3-0.5,0.6-0.7c0-0.1,0.1-0.2,0.2-0.4
		c-0.1,0-0.2,0-0.3,0c0,0,0,0,0,0l0,0c0,0,0,0,0,0c1.3-1.8,2.5-3.7,3.9-5.7c1.3,1,2.3,1.7,3.6,2.8c0,3.2,0,6.9,0,10.5
		c0,2.4-0.1,4.8,0,7.2C180.6,94.1,179.8,96.9,178.6,99.6z M240.5,81.1c-1.2,3.3-2.4,6.7-3.8,9.9c-0.4,1.1-1.3,2-1.9,3.1
		c-0.3,0.5-0.6,1.1-0.9,1.7c-0.8,2.3-2.4,3.8-4.1,5.3c-0.2-0.1-0.4-0.3-0.6-0.4c0-0.1,0-0.3,0-0.4c-0.8,0-1.6-0.6-1.7-1.6
		c-0.1-0.8,0-1.6,0.1-2.4c0-0.1,0-0.2,0-0.3c0.3-6.7,0.8-13.3,3.4-19.6c1.1-2.7,3.1-4.4,5.8-5.3c0.5-0.2,1-0.3,1.6-0.5
		c0.4,0.6,0.7,1.2,1.1,1.6c0.9,0.7,0.8,1.6,0.7,2.5c-0.1,1.3,0.2,2.6,0.3,3.9C240.7,79.5,240.7,80.4,240.5,81.1z M249.5,53.7
		c1.3-8.4,3.3-16.7,6.4-24.6c1-2.6,3.2-4.2,5.3-5.9c0.2-0.2,0.7-0.1,1.1-0.2c0.3,5.4-7.8,29.8-12.9,39c-0.2,0-0.4,0-0.6,0
		C249.1,59.2,249.1,56.4,249.5,53.7z"/>
	<g>
		<path class="st5" d="M418.1,105c-0.5,0.7-0.9,1.1-1.1,1.6c-1,2.6-3.2,3-5.6,3c-0.5,0-0.9-0.1-1.4-0.1c-2.1-0.1-3.5-1-4-2.9
			c-0.5-2.4-1-4.9-1.1-7.3c-0.1-3.2,0.3-6.4,0.3-9.6c0-6.6,2.9-12.3,5.5-18.1c0.6-1.3,1.7-2.5,2-3.9c0.7-3.1,1.3-6.3,1.6-9.5
			c0.2-2,0.4-4.3-1.7-6.1c-1.5,1.1-3,2.1-4.3,3.3c-0.5,0.5-0.6,1.4-0.9,2.1c-0.2,0.5-0.6,0.9-0.8,1.4c-1.5,3.8-3.4,7.4-4.5,11.3
			c-1.6,5.7-2.5,11.5-3.8,17.3c-0.2,0.8-0.4,1.7-0.9,2.4c-1.7,2.8-3.2,5.6-6.1,7.5c-2.2,1.5-4.8,1.8-7.2,3.3c-0.3-0.9-0.6-1.4-0.6-2
			c0.2-2.4,0.3-4.8,0.7-7.2c0.2-1.1,0.8-2.4,1.6-3.2c3.8-3.9,6.2-8.6,8.6-13.3c0.9-1.7,0.5-2.7-1.1-3.7c-1.3-0.8-2.6-1.4-4-2.1
			c-4,2.1-7.2,4.9-8.6,9.4c-0.7,2.4-1.3,4.8-1.9,7.2c-0.4,1.7-1.5,2.8-3,3.6c-2.8,1.4-4.6,0.2-4.9-2.8c-0.2-3.1-0.5-6.2-1.1-9.1
			c-0.5-2-0.1-3.4,0.9-5.1c0.8-1.4,1.3-3.1,1.7-4.7c0.1-0.5-0.2-1.4-0.6-1.7c-0.8-0.7-1.8-1.1-2.8-1.6c-0.3,0.3-0.7,0.6-0.8,0.9
			c-0.8,2.3-1.5,4.6-2.2,6.9c-0.4,1.2-0.5,2.5-1,3.7c-3.5,6.8-7.4,13.4-13.3,18.5c-1.1,1-2.5,1.6-4.1,2.6c-0.4-1.8-0.8-3.1-1-4.3
			c-0.4-3.3-0.8-6.8,0.4-10c1.1-2.9,2.7-5.7,4.1-8.5c1.1-2.2,0.6-4.9-1.2-6.7c-1-1-1.8-2.1-2.8-3.1c-0.7-0.7-1.4-1.6-2.2-1.7
			c-1.2-0.2-1.5,1-2,1.9c-0.6,1.3-1.5,2.5-2.3,3.7c-0.3,0.4-0.8,0.8-1,1.3c-1.1,2.6-2.2,5.3-3.3,7.9c-0.3,0.8-0.9,1.5-1.3,2.2
			c-0.2-0.1-0.4-0.1-0.6-0.2c-0.1-0.8-0.3-1.7-0.1-2.5c0.1-0.8,0.7-1.4,0.9-2.2c0.7-3.6,1.3-7.2,2-10.8c0.3-1.7-0.4-2.9-1.1-4.3
			c-2.3,0.8-3,2.5-3.2,4.6c-1.7,0.7-2.2,2.2-2.7,3.7c-0.7,1.9-1.7,3.8-2.7,5.6c-2,3.4-4.1,6.9-6.2,10.2c-0.8,1.3-1.9,2.4-3,3.4
			c-0.5,0.5-1.4,0.6-2.1,0.9c-1-2.1-1.6-4.1-1.3-6.1c0.4-3.2,0.7-6.4,1.4-9.5c0.7-3.4,1.7-6.8,2.5-10.2c0.1-0.6,0.2-1.6-0.2-1.8
			c-1.7-1.1-3.4-2-5.5-3.1c-0.9,3.2-1.8,5.8-2.4,8.6c-0.9,4.4-1.5,8.8-2.4,13.2c-0.3,1.3-0.7,2.7-1.5,3.7c-1.9,2.4-3.9,4.7-6.1,7
			c-1.2,1.3-2.7,2.4-4.2,3.4c-0.6,0.4-1.7,0.5-2.4,0.2c-0.4-0.2-0.6-1.4-0.6-2.1c0.1-1.1,0.5-2.2,0.6-3.4c0.4-3.3,0.7-6.7,1.2-10
			c0.6-3.4,1.5-6.7,2.3-10c1.1-4.7,2.2-9.4,3.5-14.1c0.4-1.5,1.3-2.8,1.6-4.3c0.5-2.7,0.6-3.1,3.3-3.8c1.3-0.3,2.6-0.4,4-0.6
			c3.7-0.6,7.4-1.3,11.1-1.7c6.1-0.6,12.4-0.5,18.4-1.4c4.7-0.7,9.6,0.1,14.2-1.9c2.1-0.9,4.4-1.1,6.5-2c2.6-1.1,5-2.8,7.4-2.8
			c1.4-1.7,2.5-3,3.5-4.2c2.4-2.8,5.4-5.3,4.4-9.7c-0.1-0.5,0.1-1.1,0.2-1.6c0-0.9,0.1-1.7,0-2.6c-0.2-1.2-0.6-2.5-0.4-3.8
			c0-0.2-0.1-0.3-0.1-0.5c-0.4-0.8-1.1-1.5-1.8-2.2c-2.1,0-4.1,0.3-6,1c-1,0.4-1,1.5-0.3,2.4c0.9,1.1,2.2,1.5,3.6,1.1
			c0.9-0.2,1.8-0.3,3-0.6c0.2,1,0.5,1.7,0.4,2.5c-0.2,2.1-0.5,4.3-0.9,6.4c-0.2,0.8-0.7,1.7-1.3,2.1c-1.4,1-2.1,2.2-2.6,3.7
			c-0.1,0.4-0.3,0.8-0.6,1c-1.4,1.2-2.9,2.3-4.4,3.4c-0.8,0.5-1.6,1.1-2.6,0.6c-0.4,0.4-1,0.6-1.5,0.6c-1.2,0.9-2.4,1.8-3.7,2.2
			c-3.7,1.1-7.5,1.7-11.3,2.4c-0.9,0.2-1.9-0.1-2.8,0c-1.3,0.1-2.6,0.4-3.9,0.6c0,0.2,0,0.3,0.1,0.5c-11,0.5-22.1,1.1-33.4,1.7
			c0-0.6-0.2-1.4,0-2c0.4-1.4,1-2.8,1.5-4.1c0.3-0.8,0.9-1.6-0.2-2.4c-0.5,0.4-1,0.8-1.7,1.2c-2.5-0.9-5.1-1.8-7.9-2.9
			c-0.1,0.8-0.3,1.5-0.1,2c0.9,3.2-0.3,6.2-0.9,9.3c-0.2,1.2-0.9,1.8-2.1,2.2c-5.3,1.6-10.7,3.2-15.9,5.1c-5.3,1.9-10,4.7-12.9,10
			c-1.7,3.1-1.7,5.6,0.3,8.4c1.1,0.2,2.1,0.5,3,0.6c1.2,0.1,2.4,0.3,3.6,0.1c1.6-0.2,2.8-1.8,2.6-3.1c-1.4,0.4-2.9,0.9-4.4,1.1
			c-1.3,0.2-2.5-0.6-2.4-1.8c0.1-2.1-0.4-4.3,1-6.2c1.8-2.4,4.1-4.2,6.8-5.4c5.5-2.4,11.1-4.3,17-5.5c0.5-0.1,1.1,0,1.8,0
			c-0.3,2.5-0.5,3.2-0.5,3.2c0,0.7,0.1,1.2,0,1.7c-0.3,1.4-0.7,2.9-0.9,4.3c-1.2,6.8-2.6,13.6-3.4,20.4c-0.6,5.5-0.6,11.1-0.7,16.6
			c0,2.5,2.2,3.9,4.7,3c0.7-0.2,1.3-0.6,1.9-1c1.5-1,3.1-2,4.4-2.9c1.7-4.2,5-7.3,7.6-11.1c0.3,0.6,0.6,0.9,0.6,1.3
			c0.3,1.8,0.5,3.6,0.9,5.3c0.4,1.5,0.9,2.9,1.7,4.2c0.8,1.4,2,1.7,3.2,0.7c2.7-2.2,5.5-4.3,7.7-7c2.5-3.1,4.3-6.8,6.5-10.2
			c0.7-1.1,1.5-2.2,2.2-3.3c0.2,0.1,0.4,0.2,0.6,0.3c-0.8,3.8-1.8,7.5-2.4,11.3c-0.6,3.8-1.5,7.6-0.2,11.6c0.9-0.6,1.7-1.2,2.2-2
			c2.1-3.4,4.1-6.9,6.1-10.4c0.1-0.2,0.2-0.5,0.3-0.8c0.7-2.4,1.4-4.7,2.2-7.1c0.3-0.9,0.8-1.9,2-1.6c1.2,0.3,1.1,1.4,1,2.3
			c-0.1,0.4-0.2,0.8-0.3,1.2c-0.5,3-1.1,6.1-1.5,9.1c-0.5,3.6,0.2,6.9,2.5,9.9c0.9,1.1,1.5,2.5,2.3,3.9c1-0.5,2.3-1,3.5-1.7
			c0.3-0.2,0.9-0.4,0.9-0.7c0.4-1.7,1.8-2.2,2.9-3.2c1.6-1.5,3.2-3,4.7-4.6c1.7-1.8,3.2-3.7,5.1-5.9c0.8,1.9,1.6,3.5,2.3,5.1
			c-0.2,0.3-0.2,0.5-0.4,0.6c-0.2,0.2-0.4,0.4-0.6,0.5c-2.8,0.9-4.6,3.2-6.6,5.1c-1.9,1.8-1.8,4.7,0.4,6.1c1.6,1,3.6,2,5.3,2
			c2.5,0,4.9-1,7.4-1.5c0.1-1.3,0.5-2.1,0.8-3c0.7-1.8,1.5-3.6,2-5.5c0.6-2.6,1.7-3.6,4.6-3.5c0.2,4.4-1.5,8.9,0.7,12.9
			c2.4,1.9,5,1.6,7.8,1.6c-0.3-0.4-0.5-0.7-0.6-0.8c1.2-1.1,2.2-2.1,3.3-3.1c2-1.8,4.1-3.6,6.2-5.4c0.5-0.4,1.2-0.5,2.1-0.7
			c0.6,4.6,1.1,8.9,1.7,13.3c2.3,0.5,4.5,0.8,6.6,1.4c3.6,0.9,7,0.1,10.2-1.3c1.4-0.6,2.3-2.4,3.4-3.8
			C418.5,106,418.2,105.6,418.1,105z M411.5,59.7c1.2,3.1-1.6,5.1-1.6,8.3C407.9,65.9,409,61.1,411.5,59.7z M390.7,74.7
			c0.3,2.8-1.1,5.4-3.4,6.1C387.8,78.4,389.2,76.6,390.7,74.7z M361,101.2c-2.1-1.3-2.4-3.2-0.6-4.7c1.2-1,2.8-1.7,4.2-2.5
			c0.1,0.2,0.2,0.4,0.4,0.5c-0.3,0.6-0.6,1.2-0.9,1.7C364.6,98.9,363.8,100.3,361,101.2z"/>
		<path class="st5" d="M311.6,77.5c1.1,2.6-0.8,4.7-1.1,7C310.2,82.1,309.9,79.7,311.6,77.5z"/>
		<path class="st5" d="M384.1,82.5c-0.7-2.2,0.9-3.5,1.4-5.5C386.3,79,385.8,80.8,384.1,82.5z"/>
	</g>
	<g>
		<path class="st5" d="M531,110.8c-1.6-0.9-3.6-0.9-4.9,0.2c-1.3,1.1-1.7,3.2-1,4.8c0.8,1.6,2.4,2.4,4.4,2c0.6-0.1,1.2-0.3,1.9-0.4
			c1,3.2-0.1,5.9-1.7,8.3c-1.3,2-2.8,3.7-4.3,5.6c-2.6,3.2-6,5.1-9.9,6.1c-1.7,0.4-2.6-0.6-2.2-2.3c0.2-0.7,0.6-1.3,1-2
			c1.1-1.9,2.2-3.8,3.4-5.7c0.8-1.2,0.7-2.2-0.9-3.1c-0.5,0.7-0.9,1.3-1.3,1.9c-0.8,1.1-1.6,2.2-2.5,3.4c-0.5,0.6-1,1.2-1.4,1.9
			c-1,1.6-2.5,2.2-4.8,1.6c0.1-1.4-0.1-2.9,0.4-4.2c2.1-4.7,4.7-9.2,8.3-13c0.5-0.5,0.7-1.3,1-1.9c-0.1-0.2-0.2-0.3-0.4-0.5
			c-2.7,0.3-5.4,0.6-7.6,0.9c-1.9,2.6-3.4,4.8-5,7c-3.2,4.2-7.6,6.7-12.5,8.2c-0.6,0.2-1.3,0.3-2,0.3c-1.6-0.1-1.9-0.6-1.9-2.2
			c0-3.4,2.3-5.2,4.8-6.6c4.1-2.3,7.1-7.8,6.4-12.5c-0.3-1.7-2.5-3.4-4-2.6c-2.8,1.4-6.1,2.4-6.9,6.1c-0.1,0.6-0.5,1.1-0.8,1.6
			c-1.6,2.7-3.5,5.4-3.3,8.8c0,0.4-0.3,0.9-0.4,1.3c-3.3,0.8-5.8,3.8-9.8,3.1c0.1-1.2,0.1-2.2,0.2-3.2c0.7-4.7,3.7-8.4,6.1-12.3
			c1.1-1.8,1.5-3.6,1.3-5.5c-0.1-1.4-0.8-2.4-2.3-2.6c-3.1-0.4-6.1-1.1-8.7-3.8c-0.8,0.8-1.5,1.4-2,1.9c2.2,3.5,2.2,4.1,1.5,6.1
			c-2.1,5.5-6.5,8.7-11.4,11.3c-2.7,1.4-5.7,2.3-8.8,2.5c-3.8,0.3-7.3-2.4-7.3-6.2c0-2.2,0.7-4.5,0.7-6.7c0-2.7,0.8-5,1.8-7.3
			c0.5-1.2,1.2-2.4,1.8-3.6c2.9-5.9,6-11.7,10.4-16.7c2.7-3.1,7.3-4,11.1-2.2c-0.1,1.5-1.5,1.9-2.5,2.6c-2.4,1.6-4.8,3.1-7.2,4.7
			c-1.1,0.7-2.1,1.4-3.2,2.2c-0.1-0.1-0.3-0.2-0.4-0.3c-1.4,3-2.9,5.9-4.2,9c-0.6,1.5,0.4,3.3,2.3,3.7c2.6,0.5,5.3,0.7,7.6-1.2
			c1.6-1.3,3-2.8,4.6-4.1c3.5-3,5.7-6.8,6.6-11.4c0.1-0.7,0.4-1.4,0.6-1.8c4.4-1.5,7.6,0.7,10.7,3c1.1-0.6,1.2-1.3,0.7-2
			c-1.5-2.1-3.2-3.8-5.9-4c-1.3-0.1-2.6-0.5-4-0.5c-1.2-0.1-2-0.6-2.6-1.6c-2.1-3-5.2-4-8.6-3c-0.6,0.2-1.3,0.3-2,0.4
			c-4.2,0.7-8,2.1-11.1,5.1c-1.3,1.2-2.5,2.4-3.6,3.8c-4.4,5.1-8.6,10.3-9.5,17.3c-0.8,5.8-2.4,11.6-1,18.2c0.7,0.6,1.9,1.7,3,2.7
			c3.1,2.9,6.4,4.8,10.8,4.2c2.9-0.4,5.8-1,8.6-1.5c0.6-0.5,1.1-1.1,1.8-1.5c1.7-1.1,3.4-2.1,5.1-3.2c2.7-1.8,5.1-3.8,6.6-6.9
			c0.6-1.3,1.6-2.4,3.3-2.9c0.7,2,0.2,3.8-0.6,5.5c-1.9,3.6-3.5,7.3-4.4,11.3c-0.7,3.1,1.2,5.7,4.2,5.2c2.4-0.4,4.7-0.8,7.2-1.2
			c0.5-0.4,1.1-0.9,1.9-1.6c0.3,2.4,1.2,4.1,3,4.9c2.1,0.9,4.3,1.7,6.6,0.5c1.5-0.8,2.9-1.6,4.4-2.4c1.8-1,3.7-2.1,5.9-3.3
			c-0.1,1.4-0.1,2.3-0.2,3.2c-0.3,3.9,1,5.8,5.2,6.4c0.2,0,0.4,0,0.6,0c1.4-0.2,2.5,0.3,3.5,1.5c1.2,1.5,2.7,2.1,4.7,1.2
			c1.6-0.8,3.4-1.3,5-2.1c1.4-0.7,2.8-1.4,3.9-2.5c2.2-2.1,4.2-4.5,6.2-6.8c1-1.2,2.2-2.6,2.5-4c0.5-3.1,0.5-6.3,0.5-9.4
			C533.7,113.5,532.8,111.9,531,110.8z M493.9,111.9c1.5,0.9,1.6,1.9,0.8,2.6c-1.6,1.6-3.3,3-5,4.4
			C490.7,116.5,492.3,114.2,493.9,111.9z M463.2,90.4c-0.5,0.6-0.8,1.4-1.2,2c-1.5,2.7-3.3,5-6.7,5.5c-1.7,0.2-2.5-0.6-1.8-2.2
			c0.5-1.1,1.3-2.2,2.1-3.1c1.6-1.8,3.3-3.7,5.1-5.3c1.6-1.3,3.5-2.2,5.2-3.3c0.1,0.1,0.3,0.3,0.4,0.4
			C465.8,86.6,464.6,88.6,463.2,90.4z"/>
		<path class="st5" d="M438.8,101.9c1.2,2.9,1,4.3-0.9,6.3C437,106.3,437.3,103.7,438.8,101.9z"/>
	</g>
	<path class="st5" d="M332.4,29c-0.8,0.2-0.8,0.2-1.7-0.6c-1,0.2-2.1,0.3-3.2,0.5c0,0.1,0,0.2,0,0.4c0.4,0.1,0.7,0.3,1.3,0.5
		c-0.1,0.4-0.2,0.9-0.4,1.2c-0.6,0.8-0.9,1.6-0.9,2.6c0,0.5-0.4,0.9-0.9,0.6c-0.9-0.5-2.1-0.6-2.4-2.1c-0.2,0.3-0.4,0.5-0.6,0.8
		c-0.2,0.3-0.3,0.6-0.5,1.2c-0.9-0.6-1.8-1.2-2.6-1.8c-1.2,1-2.2,1.8-3.3,2.6c-0.1-0.1-0.2-0.2-0.3-0.3c0.6-2.2,2.9-3.3,3.9-5.6
		c-0.8,0-1.4,0-1.9,0.1c-0.8,0.2-1.3,0.1-1.9-0.8c0.7-0.4,1.4-0.8,2.1-1.2c-0.3-0.7-0.7-1.6-1-2.4c-0.2-0.6-0.4-1.3-0.4-2
		c0-0.4,0.3-1,0.6-1c0.4,0,0.9,0.2,1.2,0.5c0.3,0.4,0.5,0.9,0.7,1.4c0.2,0.3,0.3,0.7,0.5,0.9c0.5,0.6,1.1,1.2,2,0.9
		c0.9-0.3,0.6-1.2,0.8-1.9c-0.1,0-0.2,0.1-0.3,0.1c-0.5-0.8-1.1-1.5-1.4-2.4c-0.3-0.7-0.2-1.4,0.5-1.9c0.2-0.2,0.3-0.6,0.4-0.9
		c0.1-0.3,0.2-0.6,0.3-0.8c0.1,0,0.2,0,0.3,0c0.2,0.5,0.3,1.1,0.6,1.6c0.3,0.4,0.8,0.7,1.3,1.3c0,0.7,0.1,1.7,0.2,2.9
		c0.7-0.6,1.2-1.2,1.8-1.7c0.3,0.2,0.5,0.3,0.6,0.5c0.5,1.1,1.2,1.8,2.4,2.2c0.5,0.1,0.9,1,1.1,1.6C331.8,26.9,332.8,27.8,332.4,29z
		"/>
	<path class="st5" d="M98.7,66.6c-0.3,0.8-0.3,0.8-1.3,1.2c-0.4,1-0.7,2-1.1,3c0.1,0.1,0.2,0.1,0.3,0.2c0.3-0.3,0.6-0.5,1-0.9
		c0.3,0.3,0.7,0.6,0.8,1c0.4,0.9,0.9,1.6,1.8,2.1c0.5,0.2,0.6,0.8,0.1,1.1c-0.9,0.5-1.6,1.5-3,1c0.1,0.3,0.2,0.6,0.4,0.9
		c0.2,0.3,0.4,0.6,0.8,1c-1,0.5-1.9,0.9-2.9,1.4c0.2,1.5,0.4,2.8,0.7,4.1c-0.1,0-0.3,0.1-0.4,0.1c-1.6-1.6-1.5-4.1-2.9-6.2
		c-0.3,0.7-0.7,1.2-0.8,1.7c-0.2,0.8-0.6,1.2-1.6,1.3c0-0.8,0-1.6,0-2.4c-0.8-0.1-1.7-0.1-2.6-0.3c-0.7-0.1-1.3-0.4-1.9-0.7
		c-0.3-0.2-0.7-0.8-0.6-1c0.2-0.4,0.6-0.7,1-0.8c0.5-0.1,1,0,1.6,0c0.4,0,0.7,0.1,1.1,0c0.8-0.1,1.6-0.4,1.7-1.3
		c0.2-0.9-0.7-1.1-1.2-1.6c0,0.1,0,0.2-0.1,0.3c-0.9,0-1.9,0.2-2.8,0.1c-0.8-0.1-1.3-0.5-1.4-1.4c0-0.3-0.4-0.6-0.6-0.8
		c-0.2-0.2-0.4-0.4-0.6-0.7c0-0.1,0.1-0.2,0.1-0.3c0.6,0.1,1.1,0.3,1.7,0.2c0.5,0,1-0.3,1.8-0.5c0.7,0.3,1.5,0.7,2.6,1.2
		c-0.2-0.9-0.4-1.7-0.6-2.4c0.4-0.1,0.6-0.3,0.7-0.3c1.2,0.1,2.2-0.1,3.1-1c0.4-0.4,1.3-0.3,1.9-0.1C96.5,66,97.8,65.7,98.7,66.6z"
		/>
</g>
</svg>
